<svg xmlns="http://www.w3.org/2000/svg" viewBox="0 0 32 32" width="32" height="32">
  <defs>
    <linearGradient id="fg1" x1="0%" y1="0%" x2="100%" y2="100%">
      <stop offset="0%" stop-color="#ec4899"/>
      <stop offset="50%" stop-color="#f97316"/>
      <stop offset="100%" stop-color="#f59e0b"/>
    </linearGradient>
    <linearGradient id="fg2" x1="0%" y1="100%" x2="100%" y2="0%">
      <stop offset="0%" stop-color="#ec4899"/>
      <stop offset="100%" stop-color="#f97316"/>
    </linearGradient>
  </defs>
  <!-- Rounded background -->
  <rect x="1" y="1" width="30" height="30" rx="7" fill="white" stroke="url(#fg1)" stroke-width="1.5"/>
  <!-- Shopping bag body -->
  <path d="M8 13 L8 25 Q8 27 10 27 L22 27 Q24 27 24 25 L24 13 Z" fill="none" stroke="url(#fg2)" stroke-width="2" stroke-linecap="round" stroke-linejoin="round"/>
  <!-- Bag handle forming M shape -->
  <path d="M11 13 L11 9 Q11 5 16 5 Q21 5 21 9 L21 13" fill="none" stroke="url(#fg1)" stroke-width="2" stroke-linecap="round" stroke-linejoin="round"/>
  <path d="M11 9 L14 12 L16 8 L18 12 L21 9" fill="none" stroke="url(#fg1)" stroke-width="1.5" stroke-linecap="round" stroke-linejoin="round"/>
  <!-- Star -->
  <polygon points="22,11 23.2,14 26.5,14 24,16 25,19 22,17 19,19 20,16 17.5,14 20.8,14" fill="url(#fg1)" stroke="none" transform="scale(0.7) translate(10, 2)"/>
  <!-- Sparkle dots -->
  <circle cx="25" cy="8" r="1" fill="#f97316"/>
  <circle cx="27" cy="11" r="0.7" fill="#ec4899"/>
</svg>
